<?xml version="1.0" standalone="no"?>
<!DOCTYPE svg PUBLIC "-//W3C//DTD SVG 20010904//EN"
 "http://www.w3.org/TR/2001/REC-SVG-20010904/DTD/svg10.dtd">
<svg version="1.0" xmlns="http://www.w3.org/2000/svg"
 width="815.000000pt" height="815.000000pt" viewBox="0 0 815.000000 815.000000"
 preserveAspectRatio="xMidYMid meet">

<g transform="translate(0.000000,815.000000) scale(0.100000,-0.100000)"
fill="#000000" stroke="none">
<path d="M0 4075 l0 -4075 4075 0 4075 0 0 4075 0 4075 -4075 0 -4075 0 0
-4075z m7530 3145 c39 0 51 -3 40 -10 -11 -7 -5 -10 25 -11 l40 -1 -35 -12
-35 -13 33 -7 c30 -7 47 -29 20 -25 -7 1 -26 0 -43 -1 l-30 -2 30 -7 c17 -4
29 -12 27 -19 -1 -7 4 -12 10 -13 62 -3 104 -19 52 -19 -22 0 -26 -3 -14 -10
11 -7 -4 -10 -50 -10 -63 -1 -160 -16 -130 -20 8 -1 4 -6 -10 -10 -20 -7 -16
-8 22 -9 49 -1 62 -9 49 -30 -5 -8 -40 -15 -92 -18 -55 -4 -77 -9 -64 -14 18
-7 17 -8 -5 -8 -18 -1 -21 -4 -12 -10 21 -13 -10 -21 -86 -22 -47 0 -61 -3
-47 -9 19 -8 19 -9 -2 -9 -13 -1 -23 -5 -23 -10 0 -5 -10 -12 -22 -14 -14 -2
-6 -5 17 -6 57 -2 75 -16 33 -27 -31 -8 -30 -8 22 -12 l55 -4 -30 -13 c-19 -9
-24 -14 -12 -14 25 -1 21 -21 -5 -21 -19 0 -20 -2 -8 -10 13 -8 12 -10 -2 -10
-10 0 -18 -4 -18 -10 0 -5 -26 -10 -57 -11 -62 -1 -162 -15 -128 -18 l20 -2
-20 -9 c-11 -5 -36 -9 -55 -10 -23 -2 -28 -4 -15 -8 l20 -5 -20 -7 c-15 -6 -7
-10 32 -15 63 -9 60 -25 -5 -26 -26 -1 -38 -4 -28 -6 13 -4 15 -7 7 -13 -7 -4
29 -11 79 -14 50 -4 89 -11 85 -14 -3 -4 -36 -12 -73 -18 l-67 -12 96 -1 c53
0 98 -4 102 -7 8 -9 -21 -37 -52 -50 -25 -11 -25 -11 19 -22 l45 -10 -70 -1
c-40 -1 -65 -5 -57 -9 9 -6 5 -12 -15 -22 -27 -13 -25 -14 52 -22 100 -11 115
-16 95 -28 -10 -7 8 -10 55 -10 39 0 87 -5 108 -11 36 -10 38 -11 20 -24 -10
-8 -13 -15 -8 -16 6 0 -1 -4 -15 -8 -25 -7 -24 -8 16 -33 23 -15 57 -28 75
-30 29 -3 22 -6 -44 -23 -56 -13 -73 -21 -60 -26 10 -5 -13 -9 -57 -10 l-75
-2 60 -6 c47 -5 55 -8 35 -13 -14 -4 -41 -8 -61 -8 -20 0 -51 -3 -70 -7 -28
-5 -30 -7 -14 -14 11 -4 40 -8 65 -9 25 -1 68 -7 95 -14 l50 -13 -70 -7 c-38
-3 -95 -10 -125 -14 l-55 -8 90 -8 c50 -5 119 -11 155 -15 l65 -7 -116 -12
c-63 -7 -146 -13 -185 -13 -63 -1 -57 -3 66 -18 74 -9 131 -19 125 -22 -5 -4
-102 -10 -215 -13 -113 -4 -254 -9 -315 -11 -130 -5 -308 -14 -460 -24 -60 -4
-115 -4 -121 1 -6 4 -13 5 -16 2 -9 -8 -93 -15 -213 -18 -450 -8 -1010 -12
-965 -6 46 6 49 7 18 8 -20 1 -59 6 -85 11 -26 6 -75 13 -108 17 l-60 8 50 7
c28 4 88 8 135 9 74 2 80 3 45 11 -22 5 -103 15 -180 22 l-140 14 85 3 c47 1
130 7 185 14 l100 12 -119 8 c-66 5 -140 11 -165 15 l-46 7 40 7 c22 3 72 9
110 13 61 6 66 8 40 15 -16 5 -57 11 -90 14 -106 10 -130 16 -114 26 8 5 34 9
59 10 75 1 95 17 25 20 l-60 2 65 7 c36 4 54 8 40 9 -17 1 -4 9 45 26 l70 23
-47 1 c-27 1 -48 5 -48 10 0 5 -15 12 -32 15 -18 3 -40 11 -48 16 -13 9 -13
11 0 20 10 6 11 10 3 10 -7 0 -13 6 -13 14 0 21 -26 27 -137 33 -73 4 -100 9
-97 18 5 12 -82 25 -173 25 -44 0 -66 16 -38 26 13 6 14 8 3 15 -8 5 10 9 47
10 l60 1 -60 10 c-41 7 -66 17 -81 33 -12 13 -20 26 -17 29 12 11 -72 17 -176
13 -112 -5 -141 5 -54 18 54 8 41 25 -17 24 l-35 -1 30 -8 c28 -7 29 -8 5 -10
-14 -1 -36 -4 -50 -7 -26 -6 -97 -6 -300 0 -63 2 -131 0 -150 -4 -26 -5 -15
-7 45 -9 44 -1 83 -2 88 -1 19 3 4 -18 -20 -27 -30 -11 -197 -41 -250 -44 -18
-1 -33 -6 -33 -10 0 -4 -36 -8 -81 -8 -51 0 -78 -4 -74 -10 4 -6 -6 -10 -22
-10 -15 0 -46 -7 -68 -15 -39 -14 -39 -14 -10 -15 48 -1 105 -12 105 -21 0 -4
-12 -10 -27 -12 -16 -2 4 -5 43 -6 44 0 77 -6 90 -16 19 -14 19 -14 -1 -15
-11 0 -33 -7 -49 -15 -15 -8 -37 -15 -47 -15 -10 0 -20 -3 -22 -8 -9 -14 30
-50 59 -54 19 -2 -7 -10 -70 -22 -65 -12 -94 -21 -85 -27 9 -5 -16 -9 -66 -10
-76 -2 -77 -3 -25 -8 45 -5 50 -7 30 -13 -14 -4 -44 -8 -66 -8 -23 0 -56 -3
-74 -6 -43 -9 -19 -23 40 -25 25 0 63 -6 85 -13 l40 -13 -80 -7 c-44 -4 -102
-10 -130 -13 l-50 -7 45 -7 c25 -4 92 -10 150 -15 l105 -8 -115 -12 c-63 -7
-151 -14 -195 -15 l-80 -2 130 -14 c166 -19 198 -31 85 -33 -47 -1 -107 -5
-135 -9 l-50 -7 35 -7 c19 -4 71 -14 115 -21 l80 -14 -80 -2 c-44 0 -125 -7
-180 -14 l-100 -12 75 -7 c201 -19 205 -20 185 -28 -11 -4 -53 -8 -93 -8 -49
-1 -81 -6 -98 -17 -17 -12 -36 -15 -64 -10 -28 4 -40 3 -40 -6 0 -8 -3 -9 -11
-1 -6 6 -25 7 -52 2 -57 -11 -79 -11 -72 1 3 6 -1 7 -9 4 -9 -3 -16 -9 -16
-13 0 -3 -62 -6 -138 -7 -75 -1 -236 -4 -357 -8 -121 -4 -355 -9 -520 -12
-165 -2 -307 -5 -315 -6 -8 0 -28 2 -45 6 -20 5 -26 4 -16 -2 10 -7 6 -9 -14
-9 -18 0 -23 2 -14 8 17 10 -20 26 -83 34 -27 3 -48 10 -48 16 0 5 -35 10 -77
10 l-78 2 67 7 c122 12 109 15 -142 37 l-85 7 100 12 c55 7 132 14 170 15 l70
1 -75 13 c-41 7 -97 16 -123 20 -27 4 -47 9 -44 11 2 3 65 8 138 13 146 8 141
11 -61 34 l-125 14 85 3 c47 1 132 7 190 14 l105 12 -100 8 c-55 4 -125 11
-155 15 l-55 7 50 7 c28 3 84 10 125 13 l75 8 -50 12 c-27 7 -70 13 -95 14
-25 1 -54 5 -65 9 -16 7 -14 9 14 14 19 4 50 7 70 7 20 0 47 4 61 8 20 5 12 8
-35 13 l-60 6 75 1 c46 2 70 6 62 11 -9 5 12 15 65 29 72 19 75 20 36 21 -24
1 -43 6 -43 11 0 6 -6 10 -14 10 -8 0 -24 9 -37 20 -23 18 -23 19 -4 20 11 0
26 9 32 19 11 17 8 21 -19 30 -17 6 -65 11 -107 12 -45 0 -68 3 -57 8 31 12 7
19 -88 27 l-89 7 34 17 c28 15 30 18 14 23 -11 2 16 6 60 7 44 1 71 4 60 7
-47 10 -48 13 -21 38 15 14 32 25 39 26 7 0 3 4 -8 9 -11 5 -58 9 -105 11
l-85 1 65 10 c36 5 69 13 73 17 5 5 -26 12 -69 16 -44 4 -83 13 -91 21 -12 12
-9 14 26 14 56 0 52 16 -7 26 -26 4 -39 9 -28 12 13 3 15 6 7 12 -8 4 5 10 31
15 33 5 39 9 23 14 -20 8 71 21 146 21 43 0 91 18 83 31 -3 5 2 9 10 9 22 0
20 20 -1 21 -10 1 0 7 22 14 l40 13 -49 1 c-52 1 -57 10 -10 16 43 5 43 6 -1
20 -25 8 -32 14 -20 15 l20 1 -20 10 c-16 7 -14 8 15 7 63 -2 86 2 72 11 -9 5
17 11 67 15 45 4 79 11 77 15 -9 14 59 30 156 36 54 4 96 11 93 15 -3 5 34 12
82 16 64 6 80 10 58 14 -17 4 24 9 100 12 264 12 690 28 1065 39 431 13 698
23 1000 38 356 18 683 31 1060 42 201 6 464 15 585 19 475 18 780 29 1010 36
132 4 321 10 420 14 99 5 313 6 475 4 162 -2 320 -4 350 -4z m137 -66 c-3 -3
-12 -4 -19 -1 -8 3 -5 6 6 6 11 1 17 -2 13 -5z m-2704 -1241 c-7 -2 -19 -2
-25 0 -7 3 -2 5 12 5 14 0 19 -2 13 -5z m854 -9 c-3 -3 -12 -4 -19 -1 -8 3 -5
6 6 6 11 1 17 -2 13 -5z m-90 -10 c-3 -3 -12 -4 -19 -1 -8 3 -5 6 6 6 11 1 17
-2 13 -5z m-2924 -61 c-13 -2 -35 -2 -50 0 -16 2 -5 4 22 4 28 0 40 -2 28 -4z
m2882 -3 c-3 -5 -13 -10 -21 -10 -8 0 -12 5 -9 10 3 6 13 10 21 10 8 0 12 -4
9 -10z m1110 0 c-3 -5 -11 -10 -16 -10 -6 0 -7 5 -4 10 3 6 11 10 16 10 6 0 7
-4 4 -10z m-1202 -17 c-7 -2 -19 -2 -25 0 -7 3 -2 5 12 5 14 0 19 -2 13 -5z
m134 1 c-3 -3 -12 -4 -19 -1 -8 3 -5 6 6 6 11 1 17 -2 13 -5z m750 0 c-3 -3
-12 -4 -19 -1 -8 3 -5 6 6 6 11 1 17 -2 13 -5z m-796 -21 c12 -16 12 -17 -1
-7 -8 6 -22 14 -30 17 -13 5 -12 6 1 6 9 1 23 -7 30 -16z m879 7 c18 -12 2
-12 -25 0 -13 6 -15 9 -5 9 8 0 22 -4 30 -9z m-1125 -10 c3 -5 -1 -10 -9 -10
-9 0 -16 5 -16 10 0 6 4 10 9 10 6 0 13 -4 16 -10z m370 0 c3 -5 -1 -10 -9
-10 -9 0 -16 5 -16 10 0 6 4 10 9 10 6 0 13 -4 16 -10z m460 0 c3 -5 1 -10 -4
-10 -6 0 -11 5 -11 10 0 6 2 10 4 10 3 0 8 -4 11 -10z m-518 -16 c-3 -3 -12
-4 -19 -1 -8 3 -5 6 6 6 11 1 17 -2 13 -5z m-3412 -154 c-3 -5 -13 -10 -21
-10 -8 0 -12 5 -9 10 3 6 13 10 21 10 8 0 12 -4 9 -10z m3102 -16 c-3 -3 -12
-4 -19 -1 -8 3 -5 6 6 6 11 1 17 -2 13 -5z m83 -18 c0 -3 -4 -8 -10 -11 -5 -3
-10 -1 -10 4 0 6 5 11 10 11 6 0 10 -2 10 -4z m218 -19 c8 -9 31 -11 84 -7 40
3 138 5 218 4 80 -1 155 2 168 7 14 5 21 5 17 0 -3 -6 16 -8 47 -5 77 7 827
10 822 3 -2 -3 17 -3 42 1 24 4 47 4 49 -1 3 -4 15 -5 28 -2 19 4 20 3 5 -7
-30 -19 -20 -30 28 -30 25 0 43 -4 40 -9 -5 -8 -37 -14 -149 -28 -71 -9 -65
-20 16 -28 l72 -8 -60 -13 c-33 -7 -78 -14 -100 -14 -22 -1 -49 -5 -60 -10
-17 -7 -14 -9 14 -9 51 -1 111 -22 122 -43 9 -17 4 -18 -63 -19 l-73 -2 75
-11 75 -12 -105 -9 -105 -9 145 -7 c149 -6 193 -14 168 -30 -7 -5 -25 -9 -39
-9 -15 0 -32 -7 -39 -15 -11 -13 -8 -15 18 -15 68 0 81 -22 25 -41 l-37 -12
47 -15 c34 -11 47 -20 47 -33 0 -11 -5 -19 -11 -19 -8 0 -8 -5 1 -15 8 -9 31
-15 59 -16 35 0 41 -2 26 -9 -11 -5 -15 -9 -10 -9 6 -1 3 -6 -5 -11 -9 -6 -11
-10 -3 -10 7 0 10 -7 7 -15 -4 -8 -19 -15 -34 -15 -16 0 -32 -4 -35 -10 -4 -6
21 -10 67 -11 41 -1 63 -4 50 -7 -45 -13 -19 -39 43 -42 17 -1 26 -3 20 -5 -5
-1 -30 -8 -55 -15 -76 -21 -77 -23 -10 -35 36 -7 55 -13 44 -14 -12 0 -34 -7
-48 -15 l-26 -13 32 -16 c33 -16 32 -17 -72 -17 -72 0 -100 -3 -90 -10 8 -5
33 -10 55 -11 31 -1 35 -3 15 -8 -17 -4 -4 -7 39 -11 39 -3 66 -10 69 -17 2
-7 -4 -13 -13 -13 -9 0 -13 -4 -10 -10 4 -6 -6 -10 -22 -11 -15 0 -37 -4 -48
-9 -19 -7 -19 -8 -2 -15 15 -6 16 -10 5 -16 -9 -6 -6 -9 12 -10 23 0 23 -1 5
-9 -17 -7 -16 -9 10 -10 30 -2 30 -2 5 -10 -25 -8 -25 -8 -2 -9 13 -1 20 -5
17 -11 -4 -6 8 -11 27 -11 33 -2 33 -2 4 -6 -22 -4 -26 -7 -15 -14 9 -6 0 -9
-31 -9 -66 0 -83 -16 -29 -25 24 -4 46 -11 49 -14 3 -4 21 -12 40 -18 34 -11
34 -11 -25 -12 -39 -1 -55 -4 -46 -10 11 -7 9 -10 -10 -14 -18 -3 -15 -5 11
-6 19 -1 46 -4 60 -8 l25 -7 -30 -7 c-17 -4 21 -8 90 -9 196 -4 197 -14 1 -28
-99 -7 -180 -13 -181 -15 -1 -1 0 -19 3 -39 3 -32 8 -38 28 -38 29 0 35 -39 7
-41 -17 -1 -17 -2 0 -6 9 -2 17 -9 17 -14 0 -5 16 -9 35 -9 35 0 50 -22 23
-33 -7 -3 -4 -6 7 -7 11 -1 -9 -10 -45 -20 l-65 -18 45 -3 c37 -2 31 -4 -30
-9 -41 -4 -120 -8 -175 -10 -87 -2 -94 -3 -56 -11 24 -5 46 -10 48 -13 2 -2
-31 -7 -75 -11 -92 -8 -132 -25 -60 -25 27 0 53 -6 61 -14 8 -8 32 -16 53 -19
31 -3 27 -4 -21 -6 l-60 -3 64 -13 c36 -7 70 -19 76 -29 7 -9 18 -16 26 -17 8
0 5 -4 -6 -9 -16 -7 -12 -9 18 -9 21 -1 36 -5 32 -10 -3 -5 9 -12 27 -14 31
-4 31 -4 -7 -6 -22 -1 -62 -8 -90 -15 l-50 -14 60 -6 c119 -14 180 -23 150
-25 -16 -1 -66 -10 -110 -20 l-80 -18 150 -8 c83 -4 175 -11 205 -15 l55 -8
-60 -1 c-33 -1 -67 -6 -75 -11 -10 -7 22 -10 100 -10 118 0 164 -10 119 -26
-24 -8 -24 -8 6 -15 21 -5 10 -7 -41 -8 -71 -1 -97 -12 -87 -37 6 -17 -5 -21
-90 -29 -60 -6 -66 -8 -50 -20 16 -12 13 -14 -27 -19 -68 -9 -255 -15 -790
-26 -267 -5 -516 -12 -555 -15 -134 -10 -721 -14 -680 -5 22 5 67 14 100 21
l60 12 -40 15 c-22 8 -56 18 -75 22 -31 7 -32 8 -7 9 15 0 27 5 27 10 0 6 -40
8 -97 5 -137 -7 -285 23 -208 42 13 3 23 9 21 13 -2 3 30 5 72 4 54 -1 68 1
47 6 l-30 8 33 8 c55 13 16 25 -82 25 -49 0 -86 -3 -82 -7 3 -4 -4 -13 -16
-20 -23 -12 -23 -12 6 -13 16 0 27 -3 23 -6 -10 -10 -108 7 -101 18 3 5 13 7
21 3 13 -4 13 -3 4 9 -16 19 33 36 113 37 l61 1 -55 8 c-30 4 -122 11 -205 15
l-150 8 90 18 c50 10 104 19 120 20 30 2 -28 11 -150 25 l-60 6 50 14 c28 7
69 13 93 14 26 0 41 4 37 10 -3 6 -18 7 -32 4 -18 -5 -24 -3 -19 5 5 7 -5 11
-31 11 -28 0 -34 3 -23 10 11 7 11 10 2 10 -7 0 -10 5 -7 11 4 6 -3 13 -16 16
-22 6 -22 7 -3 15 14 6 10 7 -13 3 -18 -2 -33 0 -33 5 0 6 16 10 37 10 41 0
42 7 1 12 -15 2 -31 8 -35 13 -4 4 -2 5 5 1 6 -4 12 -2 12 3 0 6 -23 11 -52
12 -73 1 -35 15 66 24 82 8 89 14 29 25 -28 6 -13 8 62 10 55 1 132 6 170 10
60 6 63 7 25 9 -41 2 -43 3 -20 12 14 6 33 8 42 5 10 -2 18 0 18 5 0 4 16 8
35 7 19 -1 38 2 43 7 4 4 -4 5 -17 2 -18 -4 -21 -3 -12 6 23 23 12 37 -30 37
-24 0 -38 4 -34 10 3 6 -4 10 -17 11 -16 0 -19 2 -8 7 22 10 20 38 -2 39 -23
2 -48 21 -48 35 0 6 7 4 16 -3 9 -7 22 -14 30 -15 15 -2 19 12 5 20 -14 9 -19
43 -7 43 6 0 97 6 201 14 207 14 215 26 20 29 -74 2 -108 5 -90 9 29 7 28 8
-15 14 -98 14 -97 14 -60 16 29 2 32 4 15 11 -15 6 -5 9 34 9 55 1 63 8 21 16
-13 3 -27 10 -30 16 -4 6 -10 10 -14 9 -3 -1 -27 1 -53 5 -56 8 -40 25 25 25
23 0 42 5 42 10 0 6 8 11 18 11 16 1 16 2 0 6 -10 2 -18 9 -18 14 0 5 -10 10
-22 10 -17 1 -19 2 -5 6 28 7 19 24 -10 18 -26 -6 -26 -5 5 11 30 15 31 18 15
30 -16 11 -11 13 35 20 35 4 49 10 40 15 -9 6 -6 9 11 9 20 0 21 2 11 15 -8
10 -32 15 -74 16 -46 1 -55 3 -36 9 23 7 22 8 -10 9 -19 1 -42 6 -50 11 -10 7
18 10 90 10 104 0 105 1 72 17 l-32 16 26 13 c14 8 36 15 48 15 11 1 -8 7 -44
14 -36 6 -58 14 -50 17 52 18 89 28 106 29 10 1 1 5 -21 10 -48 12 -64 31 -32
41 12 3 -11 6 -51 7 -46 1 -71 5 -67 11 3 6 19 10 36 10 16 0 30 5 30 10 1 6
2 18 3 28 0 9 7 20 16 24 8 4 -3 7 -26 7 -24 1 -47 7 -54 16 -9 10 -9 15 -1
15 6 0 11 7 11 15 0 16 -49 45 -75 45 -26 0 -7 18 27 25 30 7 31 8 13 21 -10
8 -35 14 -54 14 -34 1 -35 2 -17 15 11 8 32 15 47 15 33 0 46 15 21 26 -9 4
-80 10 -157 13 l-140 5 100 11 100 11 -75 11 -75 10 78 2 c72 1 76 2 66 19
-13 20 -79 42 -132 43 -27 0 -29 2 -12 9 11 5 38 9 60 10 22 0 67 7 100 14
l60 13 -77 8 c-43 4 -76 11 -73 15 3 4 28 10 57 14 118 14 143 18 152 27 6 5
-8 10 -35 10 -104 3 83 18 316 25 132 4 250 8 262 8 11 1 19 4 16 9 -7 12 14
8 25 -6z m-4021 -22 c0 -9 -9 -15 -21 -15 -21 1 -21 1 -2 15 24 18 23 18 23 0z
m617 0 c-4 -8 -10 -12 -15 -9 -11 6 -2 24 11 24 5 0 7 -7 4 -15z m-669 -25
c-3 -5 -11 -10 -16 -10 -6 0 -7 5 -4 10 3 6 11 10 16 10 6 0 7 -4 4 -10z m132
4 c-3 -3 -12 -4 -19 -1 -8 3 -5 6 6 6 11 1 17 -2 13 -5z m408 -24 c-16 -4 -39
-8 -50 -8 -16 0 -15 2 5 8 14 4 36 8 50 8 22 0 22 -1 -5 -8z m-122 -17 c-7 -2
-19 -2 -25 0 -7 3 -2 5 12 5 14 0 19 -2 13 -5z m602 -39 c-27 -7 -66 -14 -85
-15 -19 0 -44 -4 -55 -9 -15 -7 -8 -9 30 -11 47 -2 56 -3 80 -9 22 -6 31 -8
53 -9 15 -1 21 -5 16 -13 -5 -7 -2 -9 9 -5 8 3 21 -1 28 -9 7 -8 8 -14 3 -13
-5 1 -40 0 -79 -1 l-70 -3 85 -11 85 -12 -105 -9 -105 -9 150 -6 c83 -4 156
-10 163 -14 18 -11 5 -26 -22 -26 -12 0 -31 -7 -42 -15 -18 -13 -17 -14 18
-15 69 0 90 -22 41 -41 -28 -10 -27 -11 27 -30 30 -10 56 -19 57 -19 2 0 3 -7
3 -15 0 -8 -5 -15 -11 -15 -8 0 -8 -5 1 -15 7 -9 30 -15 54 -16 23 0 34 -3 26
-7 -9 -4 -16 -15 -16 -24 -1 -10 -2 -22 -3 -28 0 -5 -16 -10 -35 -10 -19 0
-38 -4 -41 -10 -4 -6 21 -11 67 -11 40 -1 63 -4 51 -6 -13 -2 -23 -11 -23 -19
0 -13 13 -18 65 -27 11 -1 -8 -9 -42 -17 -35 -8 -63 -17 -63 -21 0 -4 28 -11
63 -15 36 -5 52 -10 37 -12 -13 -2 -33 -10 -42 -17 -17 -11 -16 -14 14 -28 33
-16 32 -17 -72 -17 -68 -1 -98 -4 -85 -10 11 -5 38 -9 60 -10 35 -2 37 -3 15
-10 -19 -6 -10 -8 36 -9 42 -1 66 -6 74 -16 10 -12 9 -15 -4 -15 -10 0 -15 -4
-12 -9 3 -5 -13 -12 -37 -15 -38 -7 -40 -9 -24 -21 14 -10 15 -14 5 -18 -7 -3
1 -6 17 -7 26 -1 27 -3 10 -10 -17 -7 -14 -9 15 -10 l35 -2 -30 -8 c-25 -6
-26 -8 -7 -9 13 0 20 -5 17 -11 -4 -6 8 -10 27 -11 18 -1 25 -3 15 -6 -9 -2
-15 -9 -12 -14 4 -5 -14 -9 -39 -9 -61 0 -67 -16 -8 -25 26 -4 52 -10 57 -13
6 -4 26 -12 45 -18 35 -12 35 -12 -25 -14 -42 -1 -54 -4 -40 -9 19 -8 18 -9
-5 -13 -20 -4 -18 -6 10 -7 19 -1 46 -4 60 -8 l25 -7 -25 -7 c-14 -4 31 -8
100 -9 173 -3 203 -15 60 -24 -195 -12 -220 -16 -220 -37 0 -11 4 -19 9 -19 5
0 13 -9 16 -20 4 -13 15 -20 33 -20 30 0 61 -35 39 -43 -7 -3 -2 -6 11 -6 12
-1 22 -5 22 -11 0 -5 20 -10 44 -10 41 0 74 -19 59 -33 -3 -4 5 -7 18 -8 16
-1 5 -7 -31 -19 l-55 -18 50 -3 50 -2 -65 -7 c-36 -4 -110 -9 -165 -10 -103
-2 -105 -4 -20 -16 43 -6 46 -8 25 -15 -14 -4 -43 -8 -65 -8 -73 -2 -16 -21
65 -21 41 0 93 -5 115 -11 22 -6 60 -14 85 -19 l45 -7 -60 -3 -60 -2 45 -8
c25 -5 58 -13 75 -20 23 -9 26 -13 15 -20 -12 -8 -11 -10 5 -11 l20 0 -20 -9
c-16 -7 -12 -9 20 -10 32 -1 36 -3 20 -10 -17 -7 -14 -9 15 -10 32 -2 33 -3
10 -9 -14 -4 -37 -4 -53 0 -15 4 -25 4 -22 -1 6 -10 -29 -20 -70 -20 -23 0
-27 3 -15 10 8 5 11 10 5 10 -5 0 -16 -4 -23 -9 -26 -16 10 -25 141 -34 32 -3
61 -7 64 -11 4 -3 1 -6 -6 -6 -7 0 -9 -5 -6 -10 4 -6 -5 -5 -19 2 -29 12 -49
3 -26 -12 20 -13 3 -12 -21 0 -11 6 -25 8 -31 4 -21 -13 35 -26 142 -32 58 -3
126 -5 153 -4 26 1 47 -2 47 -6 0 -8 -71 -32 -95 -32 -8 0 -15 -4 -15 -9 0 -5
-15 -13 -32 -17 l-33 -8 30 -7 c17 -4 48 -7 70 -7 37 0 38 1 10 8 l-30 7 28 8
c21 6 25 10 15 16 -7 5 35 8 105 8 64 -1 120 -5 123 -10 3 -5 1 -9 -5 -9 -5 0
-18 -3 -28 -6 -15 -5 -15 -4 -3 5 21 15 -5 15 -33 -1 -22 -12 -21 -12 8 -19
22 -5 14 -7 -32 -8 -71 -1 -111 -14 -130 -41 -10 -14 -26 -20 -52 -20 -21 0
-59 -3 -85 -6 l-46 -7 25 -23 25 -23 -58 -6 c-31 -4 -70 -11 -86 -16 -16 -5
-43 -9 -60 -9 -49 0 -60 -14 -23 -30 32 -14 31 -14 -65 -26 -113 -15 -541 -37
-508 -27 8 2 24 9 35 14 11 5 40 13 65 17 l45 8 -75 13 c-41 7 -91 15 -110 17
l-35 5 22 -19 22 -19 -62 -6 c-34 -3 -89 -14 -122 -23 -82 -23 -231 -28 -1630
-49 -227 -3 -265 -2 -241 9 23 11 25 14 11 19 -9 4 -33 7 -53 8 -37 0 -37 0
13 14 28 8 79 17 115 21 l65 8 -52 16 c-67 20 -72 26 -26 33 21 4 67 13 103
20 61 12 63 14 33 21 -17 4 -37 13 -43 21 -9 11 1 15 57 20 80 9 88 12 72 31
-16 20 26 34 109 35 48 1 58 3 37 8 -25 5 -27 8 -12 14 43 16 0 27 -111 27
-79 0 -112 3 -102 10 8 5 40 10 70 11 l55 1 -55 9 c-30 4 -122 11 -205 15
-157 8 -157 8 -5 37 l75 14 -70 7 c-38 3 -92 9 -120 13 l-50 6 50 13 c28 7 68
14 90 15 38 2 38 2 7 6 -18 2 -30 9 -27 14 4 5 -11 9 -32 10 -30 0 -34 2 -18
9 18 8 18 9 2 9 -10 1 -16 5 -12 10 8 14 -7 21 -78 36 l-62 13 60 3 c50 2 53
3 18 6 -23 2 -47 11 -53 19 -7 8 -30 14 -52 14 -71 0 -30 17 58 25 47 4 83 9
81 11 -2 3 -24 8 -48 13 -38 8 -31 9 56 11 55 2 134 6 175 10 61 5 67 7 30 9
l-45 3 65 18 c36 10 57 19 47 19 -18 1 -18 2 -1 19 17 16 16 17 -14 20 -37 4
-98 32 -69 32 10 0 17 8 17 20 0 15 -7 20 -25 20 -22 0 -25 4 -25 39 l0 38 57
6 c32 4 114 10 183 14 151 8 122 19 -60 23 -74 2 -111 5 -90 9 33 6 34 7 10
14 -14 4 -41 7 -60 8 -26 1 -29 3 -11 6 19 4 21 7 10 14 -9 6 7 9 46 10 59 1
59 1 25 12 -19 6 -37 14 -40 18 -3 3 -25 10 -49 14 -54 9 -37 25 27 25 24 0
41 4 37 9 -3 5 5 12 17 14 17 3 14 5 -10 6 -19 0 -31 5 -27 11 3 6 -2 10 -12
11 -13 1 -11 3 7 9 25 8 25 8 -5 10 -26 1 -27 3 -10 10 18 8 18 9 -5 9 -19 1
-22 3 -10 11 12 7 11 10 -5 16 -18 7 -18 8 1 15 10 4 29 8 41 8 26 1 65 30 57
43 -3 4 -35 9 -72 9 -52 1 -60 3 -37 9 29 7 29 8 -10 9 -22 1 -47 6 -55 11
-10 7 18 10 90 10 l105 1 -38 16 -38 15 27 14 c14 8 36 15 48 15 11 1 -8 7
-44 14 -67 12 -66 14 10 35 25 7 50 14 55 15 6 2 -3 4 -20 5 -62 3 -88 29 -43
42 13 3 -9 6 -50 7 -46 1 -71 5 -67 11 3 6 19 10 36 10 16 0 30 5 30 10 1 6 2
18 3 28 0 9 7 20 16 24 8 4 -3 7 -26 7 -24 1 -47 7 -54 16 -10 12 -10 15 4 15
9 0 16 8 16 19 0 13 -13 22 -47 33 l-47 15 36 12 c47 15 41 41 -8 41 -35 0
-46 13 -18 24 9 3 30 6 47 6 18 0 43 9 56 19 24 18 24 19 -74 20 -55 1 -101 3
-103 5 -2 2 63 7 145 12 141 7 146 8 98 19 l-50 11 81 1 c45 1 91 6 102 12 14
7 23 8 27 1 8 -13 45 -13 45 0 0 6 -10 15 -22 20 -21 8 -20 9 12 11 19 1 41 2
47 2 7 -1 10 4 6 10 -4 7 7 8 33 4 22 -4 91 -2 154 3 133 12 220 17 490 26
107 3 290 9 405 13 116 4 282 8 370 8 153 1 158 1 110 -13z m2460 -744 c3 -5
1 -10 -4 -10 -6 0 -11 5 -11 10 0 6 2 10 4 10 3 0 8 -4 11 -10z m20 -20 c-3
-5 -14 -10 -23 -9 -14 0 -13 2 3 9 27 11 27 11 20 0z m-735 -540 c20 -6 21 -8
5 -8 -11 0 -29 3 -40 8 -25 11 1 11 35 0z m-63 -16 c-3 -3 -12 -4 -19 -1 -8 3
-5 6 6 6 11 1 17 -2 13 -5z m-87 -14 c-8 -5 -22 -10 -30 -10 -13 0 -13 1 0 10
8 5 22 10 30 10 13 0 13 -1 0 -10z m84 -25 c3 -8 2 -15 -3 -15 -5 0 -14 7 -21
15 -10 12 -10 15 3 15 8 0 17 -7 21 -15z m93 -21 c-3 -3 -12 -4 -19 -1 -8 3
-5 6 6 6 11 1 17 -2 13 -5z m-50 -20 c-3 -3 -12 -4 -19 -1 -8 3 -5 6 6 6 11 1
17 -2 13 -5z m58 -14 c13 -5 14 -9 5 -9 -8 0 -24 4 -35 9 -13 5 -14 9 -5 9 8
0 24 -4 35 -9z m220 -60 c-3 -5 -11 -10 -16 -10 -6 0 -7 5 -4 10 3 6 11 10 16
10 6 0 7 -4 4 -10z m-70 -60 c-28 -12 -37 -12 -30 0 3 6 16 10 28 9 21 0 21
-1 2 -9z m112 -6 c-3 -3 -12 -4 -19 -1 -8 3 -5 6 6 6 11 1 17 -2 13 -5z m-50
-10 c-3 -3 -12 -4 -19 -1 -8 3 -5 6 6 6 11 1 17 -2 13 -5z m-64 -11 c-7 -2
-19 -2 -25 0 -7 3 -2 5 12 5 14 0 19 -2 13 -5z m104 1 c-3 -3 -12 -4 -19 -1
-8 3 -5 6 6 6 11 1 17 -2 13 -5z m-167 -14 c-14 -4 -34 -8 -45 -8 -16 0 -15 2
5 8 14 4 34 8 45 8 16 0 15 -2 -5 -8z m85 -5 c-27 -7 -61 -13 -75 -13 -14 0 0
6 30 13 72 17 110 16 45 0z m-158 -11 c-3 -3 -12 -4 -19 -1 -8 3 -5 6 6 6 11
1 17 -2 13 -5z m236 -11 c-7 -2 -19 -2 -25 0 -7 3 -2 5 12 5 14 0 19 -2 13 -5z
m180 -10 c-7 -2 -21 -2 -30 0 -10 3 -4 5 12 5 17 0 24 -2 18 -5z m-1080 -10
c-7 -2 -21 -2 -30 0 -10 3 -4 5 12 5 17 0 24 -2 18 -5z m1155 0 c-10 -2 -28
-2 -40 0 -13 2 -5 4 17 4 22 1 32 -1 23 -4z m-113 -13 c-3 -5 -27 -10 -53 -10
-34 0 -43 3 -32 10 20 13 93 13 85 0z m120 -76 c-13 -9 -13 -13 -3 -17 11 -4
10 -7 -1 -15 -15 -11 -51 -4 -51 9 0 5 -7 9 -15 9 -16 0 -20 12 -8 24 4 3 26
5 50 4 35 -2 40 -5 28 -14z"/>
<path d="M6138 7123 c7 -3 10 -9 7 -14 -4 -5 6 -9 20 -9 14 0 24 -4 21 -9 -6
-9 36 -31 57 -31 7 1 -1 7 -18 14 -29 13 -29 13 20 10 35 -3 45 -1 35 6 -8 5
-30 10 -48 10 -20 0 -31 4 -27 10 3 6 -4 10 -17 10 -13 0 -32 2 -43 4 -11 2
-14 1 -7 -1z"/>
<path d="M5584 7093 c4 -9 1 -20 -6 -25 -9 -5 -6 -8 10 -8 13 0 21 -4 18 -9
-4 -5 3 -7 14 -4 25 7 25 9 -5 38 -28 29 -40 32 -31 8z"/>
<path d="M5364 7089 c-3 -5 -17 -9 -32 -9 -36 -1 -9 -17 33 -20 46 -3 57 -1
50 10 -4 6 5 10 21 10 38 0 27 6 -23 13 -24 3 -46 1 -49 -4z"/>
<path d="M6020 7090 c-13 -8 -12 -10 3 -10 9 0 17 5 17 10 0 12 -1 12 -20 0z"/>
<path d="M5648 7083 c7 -3 16 -2 19 1 4 3 -2 6 -13 5 -11 0 -14 -3 -6 -6z"/>
<path d="M4919 7067 c5 -5 19 -7 32 -5 20 3 19 5 -9 9 -20 3 -29 2 -23 -4z"/>
<path d="M5130 7076 c0 -2 9 -6 20 -9 11 -3 18 -1 14 4 -5 9 -34 13 -34 5z"/>
<path d="M5520 7070 c0 -5 6 -10 14 -10 8 0 18 5 21 10 3 6 -3 10 -14 10 -12
0 -21 -4 -21 -10z"/>
<path d="M5975 7070 c3 -5 11 -10 16 -10 6 0 7 5 4 10 -3 6 -11 10 -16 10 -6
0 -7 -4 -4 -10z"/>
<path d="M6140 7070 c8 -5 20 -10 25 -10 6 0 3 5 -5 10 -8 5 -19 10 -25 10 -5
0 -3 -5 5 -10z"/>
<path d="M4770 7055 c34 -20 60 -20 34 0 -10 8 -28 14 -39 14 -18 0 -17 -1 5
-14z"/>
<path d="M4388 7053 c12 -2 32 -2 45 0 12 2 2 4 -23 4 -25 0 -35 -2 -22 -4z"/>
<path d="M4556 7053 c-22 -4 -26 -7 -15 -14 10 -6 0 -9 -31 -10 -43 -2 -43 -2
15 -9 32 -4 61 -13 63 -19 3 -8 9 -8 23 -1 15 8 19 7 19 -5 0 -19 26 -20 33
-1 8 20 -1 26 -42 27 -33 1 -34 2 -11 9 14 4 18 9 10 10 -8 1 -4 6 10 10 22 7
21 8 -10 8 -19 -1 -48 -3 -64 -5z"/>
<path d="M4843 7053 c9 -2 23 -2 30 0 6 3 -1 5 -18 5 -16 0 -22 -2 -12 -5z"/>
<path d="M5190 7052 c0 -5 -15 -7 -32 -5 -24 3 -29 2 -19 -5 11 -8 9 -11 -10
-15 -15 -2 -8 -4 16 -5 47 0 103 14 70 19 -11 1 0 5 25 9 l45 7 -47 1 c-27 1
-48 -2 -48 -6z"/>
<path d="M5453 7053 c9 -2 23 -2 30 0 6 3 -1 5 -18 5 -16 0 -22 -2 -12 -5z"/>
<path d="M6024 7045 c11 -8 24 -15 30 -15 5 0 1 7 -10 15 -10 8 -23 14 -29 14
-5 0 -1 -6 9 -14z"/>
<path d="M3895 7040 c3 -6 -6 -11 -22 -12 -18 0 -12 -3 17 -7 29 -4 45 -11 45
-20 0 -17 42 -34 51 -20 3 6 16 8 29 5 15 -4 25 -1 28 8 4 10 -4 17 -23 21
-16 4 -33 4 -38 1 -4 -2 -14 -1 -22 5 -12 7 -9 9 10 10 23 0 23 1 5 9 -28 12
-88 12 -80 0z"/>
<path d="M5336 7036 c9 -7 29 -10 45 -8 47 7 41 17 -12 18 -41 1 -47 0 -33
-10z"/>
<path d="M5948 7043 c7 -3 16 -2 19 1 4 3 -2 6 -13 5 -11 0 -14 -3 -6 -6z"/>
<path d="M4950 7030 c0 -9 39 -25 46 -18 2 3 -7 10 -21 16 -14 6 -25 7 -25 2z"/>
<path d="M3483 7023 c9 -2 23 -2 30 0 6 3 -1 5 -18 5 -16 0 -22 -2 -12 -5z"/>
<path d="M3698 7023 c12 -2 30 -2 40 0 9 3 -1 5 -23 4 -22 0 -30 -2 -17 -4z"/>
<path d="M4320 7019 c25 -4 61 -7 80 -7 29 1 26 2 -15 8 -69 11 -126 10 -65
-1z"/>
<path d="M5998 7023 c7 -3 16 -2 19 1 4 3 -2 6 -13 5 -11 0 -14 -3 -6 -6z"/>
<path d="M3357 7014 c-3 -3 -3 -12 0 -20 4 -11 -5 -14 -38 -15 l-44 -1 35 -8
c19 -5 42 -4 52 1 9 5 26 9 38 9 18 0 19 3 10 20 -10 19 -40 27 -53 14z"/>
<path d="M3570 7000 c42 -23 50 -24 50 -6 0 17 -22 26 -58 26 -26 -1 -26 -1 8
-20z"/>
<path d="M3758 7010 c-2 -6 -21 -17 -43 -25 l-40 -14 45 0 c43 -1 97 17 60 20
-10 0 -8 3 5 9 11 4 31 6 44 3 16 -4 22 -2 17 6 -9 14 -83 15 -88 1z"/>
<path d="M5028 7013 c6 -2 18 -2 25 0 6 3 1 5 -13 5 -14 0 -19 -2 -12 -5z"/>
<path d="M5208 7013 c7 -3 16 -2 19 1 4 3 -2 6 -13 5 -11 0 -14 -3 -6 -6z"/>
<path d="M5250 7016 c0 -2 7 -7 16 -10 8 -3 12 -2 9 4 -6 10 -25 14 -25 6z"/>
<path d="M6078 7013 c6 -2 18 -2 25 0 6 3 1 5 -13 5 -14 0 -19 -2 -12 -5z"/>
<path d="M3000 6995 c-10 -12 -9 -15 4 -15 10 0 15 4 12 9 -4 5 0 12 6 14 8 4
9 6 2 6 -6 1 -17 -6 -24 -14z"/>
<path d="M3134 6995 c-10 -8 -32 -15 -49 -16 -31 -1 -25 -4 38 -14 21 -3 35
-10 32 -14 -3 -5 2 -12 11 -15 8 -3 12 -2 9 4 -4 6 6 10 21 10 39 0 21 12 -29
21 l-42 6 48 2 c27 0 47 6 47 12 0 7 -10 9 -25 7 -13 -3 -22 -1 -19 3 9 14
-21 10 -42 -6z"/>
<path d="M6120 6999 c0 -5 5 -7 10 -4 6 3 10 8 10 11 0 2 -4 4 -10 4 -5 0 -10
-5 -10 -11z"/>
<path d="M2726 6990 c-16 -5 -61 -11 -100 -14 -49 -4 -62 -3 -41 4 26 7 24 8
-20 7 -71 -1 -85 -8 -44 -23 31 -11 32 -13 9 -14 -14 -1 -19 -4 -11 -7 11 -5
11 -7 0 -14 -10 -6 -4 -9 17 -9 47 0 94 11 88 21 -3 5 7 9 23 10 25 0 26 1 8
10 -14 6 1 8 48 5 42 -3 66 -2 62 4 -3 6 6 10 20 10 15 0 24 4 20 10 -7 12
-39 12 -79 0z"/>
<path d="M3525 6990 c-19 -8 -19 -9 2 -9 12 -1 25 -5 28 -11 3 -5 12 -10 18
-10 7 0 4 6 -5 14 -10 7 -15 16 -11 19 9 9 -8 8 -32 -3z"/>
<path d="M2845 6974 c-86 -18 -132 -32 -115 -33 13 -1 13 -2 0 -12 -12 -8 -12
-10 5 -8 11 1 31 -3 45 -9 l25 -11 -24 0 c-13 -1 -22 -3 -19 -6 3 -3 25 -3 49
1 33 6 39 9 24 14 -19 7 -18 8 4 15 18 5 21 9 10 16 -10 6 -7 9 11 10 23 0 23
1 5 9 -16 7 -11 9 20 9 22 0 47 -4 55 -9 12 -8 10 -10 -10 -10 -18 0 -21 -3
-11 -9 11 -7 11 -10 0 -15 -18 -8 64 2 87 11 13 5 16 3 11 -10 -8 -20 -3 -21
22 -5 17 10 17 13 4 26 -7 8 -27 15 -42 17 -15 1 -32 4 -37 7 -24 14 -64 14
-119 2z m-18 -20 c-3 -3 -12 -4 -19 -1 -8 3 -5 6 6 6 11 1 17 -2 13 -5z"/>
<path d="M3808 6983 c7 -3 16 -2 19 1 4 3 -2 6 -13 5 -11 0 -14 -3 -6 -6z"/>
<path d="M3458 6973 c7 -3 16 -2 19 1 4 3 -2 6 -13 5 -11 0 -14 -3 -6 -6z"/>
<path d="M3908 6973 c7 -3 16 -2 19 1 4 3 -2 6 -13 5 -11 0 -14 -3 -6 -6z"/>
<path d="M4578 6973 c7 -3 16 -2 19 1 4 3 -2 6 -13 5 -11 0 -14 -3 -6 -6z"/>
<path d="M2338 6963 c6 -3 10 -9 6 -14 -3 -5 1 -9 8 -9 11 0 11 -2 0 -9 -20
-13 96 -41 138 -33 32 6 29 7 -35 18 -38 6 -57 12 -42 13 16 0 26 5 22 11 -3
6 4 10 16 10 12 0 19 3 16 7 -4 3 -37 7 -74 8 -38 1 -62 0 -55 -2z"/>
<path d="M3640 6960 c8 -5 22 -9 30 -9 10 0 8 3 -5 9 -27 12 -43 12 -25 0z"/>
<path d="M4405 6960 c17 -4 41 -8 55 -8 l25 0 -25 8 c-14 4 -38 8 -55 8 l-30
0 30 -8z"/>
<path d="M3825 6940 c-3 -5 -2 -10 4 -10 5 0 13 5 16 10 3 6 2 10 -4 10 -5 0
-13 -4 -16 -10z"/>
<path d="M3970 6940 c8 -5 22 -10 30 -10 13 0 13 1 0 10 -8 5 -22 10 -30 10
-13 0 -13 -1 0 -10z"/>
<path d="M4028 6943 c7 -3 16 -2 19 1 4 3 -2 6 -13 5 -11 0 -14 -3 -6 -6z"/>
<path d="M3210 6930 c-13 -9 -13 -10 0 -10 8 0 22 5 30 10 13 9 13 10 0 10 -8
0 -22 -5 -30 -10z"/>
<path d="M2200 6910 c0 -5 -7 -10 -17 -10 -9 0 -14 -3 -10 -6 3 -4 14 -3 24 1
10 5 23 7 30 6 6 -1 14 3 18 9 4 6 -4 10 -19 10 -14 0 -26 -4 -26 -10z"/>
<path d="M2625 6910 c-3 -5 -16 -10 -28 -10 -14 0 -18 -3 -11 -10 6 -6 21 -6
43 3 27 9 35 9 38 0 4 -10 8 -9 19 1 8 8 14 17 14 20 0 10 -69 6 -75 -4z"/>
<path d="M3050 6910 c-12 -8 -9 -10 13 -10 15 0 27 5 27 10 0 13 -20 13 -40 0z"/>
<path d="M2258 6893 c7 -3 16 -2 19 1 4 3 -2 6 -13 5 -11 0 -14 -3 -6 -6z"/>
<path d="M2380 6890 c0 -5 5 -10 10 -10 6 0 10 5 10 10 0 6 -4 10 -10 10 -5 0
-10 -4 -10 -10z"/>
<path d="M4878 4023 c6 -2 9 -10 6 -15 -4 -7 -2 -8 4 -4 18 11 14 26 -5 25
-11 0 -13 -3 -5 -6z"/>
<path d="M2870 4130 l-25 -8 28 -1 c15 -1 27 4 27 9 0 6 -1 10 -2 9 -2 -1 -14
-5 -28 -9z"/>
<path d="M2772 4119 c-13 -5 -28 -7 -32 -4 -4 3 -19 1 -32 -4 -19 -8 -16 -9
17 -7 27 2 46 -3 60 -15 15 -13 42 -19 105 -22 47 -2 68 -3 48 0 -20 2 -42 11
-48 19 -8 8 -30 14 -58 14 -42 0 -44 1 -26 15 22 17 4 20 -34 4z"/>
<path d="M2840 4044 c36 -9 70 -22 76 -30 6 -8 17 -14 25 -14 11 0 11 -2 -1
-10 -11 -7 -6 -10 20 -9 38 0 90 17 58 18 -10 1 -17 6 -15 12 3 16 -77 38
-158 44 l-70 5 65 -16z"/>
<path d="M2658 3983 c7 -3 16 -2 19 1 4 3 -2 6 -13 5 -11 0 -14 -3 -6 -6z"/>
<path d="M2700 3970 c-12 -8 -11 -10 7 -10 12 0 25 5 28 10 8 13 -15 13 -35 0z"/>
<path d="M3002 3971 c-9 -5 8 -11 48 -15 34 -4 65 -5 68 -2 3 3 -9 6 -27 6
-19 0 -30 4 -26 10 8 12 -44 13 -63 1z"/>
<path d="M2748 3953 c7 -3 16 -2 19 1 4 3 -2 6 -13 5 -11 0 -14 -3 -6 -6z"/>
<path d="M2920 3935 l-45 -12 40 -6 c54 -9 89 -7 50 3 -28 7 -29 8 -5 10 14 1
34 5 45 10 31 13 -30 10 -85 -5z"/>
<path d="M3258 3923 c7 -3 16 -2 19 1 4 3 -2 6 -13 5 -11 0 -14 -3 -6 -6z"/>
<path d="M2598 3913 c7 -3 16 -2 19 1 4 3 -2 6 -13 5 -11 0 -14 -3 -6 -6z"/>
<path d="M2698 3903 c7 -3 16 -2 19 1 4 3 -2 6 -13 5 -11 0 -14 -3 -6 -6z"/>
<path d="M3053 3903 c9 -2 25 -2 35 0 9 3 1 5 -18 5 -19 0 -27 -2 -17 -5z"/>
<path d="M2758 3893 c7 -3 16 -2 19 1 4 3 -2 6 -13 5 -11 0 -14 -3 -6 -6z"/>
<path d="M3123 3893 c9 -2 23 -2 30 0 6 3 -1 5 -18 5 -16 0 -22 -2 -12 -5z"/>
<path d="M2688 3883 c7 -3 16 -2 19 1 4 3 -2 6 -13 5 -11 0 -14 -3 -6 -6z"/>
<path d="M3000 3878 c-25 -6 -40 -12 -34 -15 5 -2 37 3 70 11 32 8 48 14 34
14 -14 0 -45 -5 -70 -10z"/>
<path d="M2578 3863 c7 -3 16 -2 19 1 4 3 -2 6 -13 5 -11 0 -14 -3 -6 -6z"/>
<path d="M3340 3860 l-25 -8 27 -1 c15 -1 30 4 33 9 7 11 0 11 -35 0z"/>
<path d="M2913 3853 c9 -2 23 -2 30 0 6 3 -1 5 -18 5 -16 0 -22 -2 -12 -5z"/>
<path d="M3048 3843 c6 -2 18 -2 25 0 6 3 1 5 -13 5 -14 0 -19 -2 -12 -5z"/>
<path d="M3228 3833 c6 -2 18 -2 25 0 6 3 1 5 -13 5 -14 0 -19 -2 -12 -5z"/>
<path d="M3318 3823 c7 -3 16 -2 19 1 4 3 -2 6 -13 5 -11 0 -14 -3 -6 -6z"/>
<path d="M3588 3823 c7 -3 16 -2 19 1 4 3 -2 6 -13 5 -11 0 -14 -3 -6 -6z"/>
<path d="M2760 3810 c-13 -9 -13 -10 0 -10 8 0 22 5 30 10 13 9 13 10 0 10 -8
0 -22 -5 -30 -10z"/>
<path d="M2935 3810 c-3 -5 -2 -10 4 -10 5 0 13 5 16 10 3 6 2 10 -4 10 -5 0
-13 -4 -16 -10z"/>
<path d="M3174 3805 c-14 -11 -16 -15 -4 -15 12 -1 11 -4 -3 -14 -17 -13 -13
-15 37 -21 30 -4 61 -5 68 -2 7 3 1 6 -14 6 -20 1 -26 5 -22 16 4 10 0 15 -15
15 -23 0 -29 15 -8 23 8 4 7 6 -4 6 -8 1 -24 -6 -35 -14z"/>
<path d="M3435 3813 c-26 -6 -44 -23 -24 -23 8 -1 3 -7 -11 -15 -14 -8 -19
-14 -10 -14 21 0 69 28 50 29 -8 1 -1 7 15 15 29 13 19 17 -20 8z"/>
<path d="M3610 3810 c-13 -9 -13 -10 0 -9 8 0 24 4 35 9 l20 9 -20 0 c-11 0
-27 -4 -35 -9z"/>
<path d="M2979 3791 c12 -8 9 -11 -12 -17 -16 -3 -26 -9 -23 -11 3 -3 21 0 42
7 26 9 33 15 23 21 -8 5 -21 9 -29 9 -13 0 -13 -2 -1 -9z"/>
<path d="M2998 3753 c7 -3 16 -2 19 1 4 3 -2 6 -13 5 -11 0 -14 -3 -6 -6z"/>
<path d="M2838 3740 c-10 -6 -14 -18 -11 -30 3 -11 10 -17 15 -14 5 3 7 12 4
20 -4 9 3 18 17 24 12 5 15 9 7 9 -8 0 -22 -4 -32 -9z"/>
<path d="M3060 3740 c-17 -10 -16 -12 27 -34 51 -26 81 -18 51 12 -10 10 -10
15 2 22 11 7 4 10 -25 10 -22 0 -47 -4 -55 -10z"/>
<path d="M3453 3740 c-13 -6 -21 -17 -20 -29 2 -30 63 -30 72 0 4 11 16 24 28
29 18 7 15 9 -18 9 -22 0 -50 -4 -62 -9z"/>
<path d="M3275 3731 c-3 -5 -2 -12 3 -15 5 -3 9 1 9 9 0 17 -3 19 -12 6z"/>
<path d="M3033 3683 c9 -2 23 -2 30 0 6 3 -1 5 -18 5 -16 0 -22 -2 -12 -5z"/>
<path d="M3363 3683 c9 -2 23 -2 30 0 6 3 -1 5 -18 5 -16 0 -22 -2 -12 -5z"/>
<path d="M3014 3660 c28 -11 51 -18 53 -16 6 6 -64 36 -84 36 -10 -1 4 -10 31
-20z"/>
<path d="M3297 3660 c10 -11 22 -20 28 -20 5 0 3 5 -5 10 -11 7 -11 10 -2 10
7 0 10 5 7 10 -3 6 -15 10 -25 10 -19 0 -19 -1 -3 -20z"/>
</g>
</svg>
